<svg width="48" height="48" viewBox="0 0 48 48" fill="none" xmlns="http://www.w3.org/2000/svg">
<g id="fluent:backpack-28-regular">
<path id="Vector" d="M15.4288 21C15.4288 20.2683 15.573 19.5438 15.8529 18.8679C16.1329 18.1919 16.5433 17.5777 17.0607 17.0604C18.1055 16.0155 19.5226 15.4286 21.0003 15.4286H27.0003C27.7319 15.4286 28.4564 15.5727 29.1324 15.8527C29.8083 16.1326 30.4225 16.543 30.9399 17.0604C31.4572 17.5777 31.8676 18.1919 32.1476 18.8679C32.4276 19.5438 32.5717 20.2683 32.5717 21C32.5717 21.7956 32.2556 22.5587 31.693 23.1213C31.1304 23.6839 30.3674 24 29.5717 24H18.4288C17.6332 24 16.8701 23.6839 16.3075 23.1213C15.7449 22.5587 15.4288 21.7956 15.4288 21ZM21.0003 18C20.2046 18 19.4416 18.3161 18.879 18.8787C18.3163 19.4413 18.0003 20.2043 18.0003 21C18.0003 21.2366 18.1923 21.4286 18.4288 21.4286H29.5717C29.6854 21.4286 29.7944 21.3834 29.8747 21.303C29.9551 21.2227 30.0003 21.1136 30.0003 21C30.0003 20.2043 29.6842 19.4413 29.1216 18.8787C28.559 18.3161 27.7959 18 27.0003 18H21.0003ZM24.0003 3.42856C21.9652 3.4286 19.9965 4.15259 18.4462 5.47105C16.896 6.78951 15.8653 8.61645 15.5386 10.6251C12.9096 12.0655 10.7166 14.1866 9.18923 16.7659C7.66188 19.3453 6.85647 22.288 6.85742 25.2857V38.1428C6.85742 39.8478 7.53472 41.4829 8.74031 42.6885C9.9459 43.8941 11.581 44.5714 13.286 44.5714H34.7146C36.4195 44.5714 38.0547 43.8941 39.2602 42.6885C40.4658 41.4829 41.1431 39.8478 41.1431 38.1428V25.2857C41.1441 22.288 40.3387 19.3453 38.8113 16.7659C37.284 14.1866 35.0909 12.0655 32.462 10.6251C32.1352 8.61645 31.1046 6.78951 29.5543 5.47105C28.0041 4.15259 26.0354 3.4286 24.0003 3.42856ZM23.5717 8.57141C21.8523 8.57141 20.1946 8.83027 18.6346 9.31199C19.133 8.3158 19.899 7.47805 20.8467 6.89256C21.7944 6.30707 22.8863 5.99697 24.0003 5.99697C25.1142 5.99697 26.2062 6.30707 27.1539 6.89256C28.1015 7.47805 28.8675 8.3158 29.366 9.31199C27.7666 8.81931 26.1024 8.56966 24.4288 8.57141H23.5717ZM23.5717 11.1428H24.4288C26.2861 11.1428 28.1252 11.5087 29.8411 12.2194C31.557 12.9301 33.1161 13.9719 34.4294 15.2852C35.7426 16.5985 36.7844 18.1576 37.4951 19.8735C38.2059 21.5894 38.5717 23.4284 38.5717 25.2857V27.4286H9.42885V25.2857C9.42885 21.5348 10.9189 17.9375 13.5712 15.2852C16.2235 12.6329 19.8208 11.1428 23.5717 11.1428ZM15.4288 30V33C15.4288 33.341 15.5643 33.668 15.8054 33.9091C16.0465 34.1502 16.3736 34.2857 16.7146 34.2857C17.0556 34.2857 17.3826 34.1502 17.6237 33.9091C17.8648 33.668 18.0003 33.341 18.0003 33V30H38.5717V38.1428C38.5717 39.1658 38.1653 40.1469 37.442 40.8703C36.7186 41.5936 35.7375 42 34.7146 42H13.286C12.263 42 11.2819 41.5936 10.5586 40.8703C9.83523 40.1469 9.42885 39.1658 9.42885 38.1428V30H15.4288Z" fill="#343434"/>
</g>
</svg>
