<svg width="46" height="45" viewBox="0 0 46 45" fill="none" xmlns="http://www.w3.org/2000/svg">
<path d="M39.8584 39.1013L31.7887 31.0315M31.7887 31.0315C33.169 29.6511 34.264 28.0124 35.0111 26.2089C35.7581 24.4053 36.1426 22.4723 36.1426 20.5202C36.1426 18.5681 35.7581 16.635 35.0111 14.8315C34.264 13.028 33.169 11.3892 31.7887 10.0089C30.4083 8.62851 28.7696 7.53355 26.966 6.7865C25.1625 6.03945 23.2295 5.65495 21.2774 5.65495C19.3252 5.65495 17.3922 6.03945 15.5887 6.7865C13.7851 7.53355 12.1464 8.62851 10.766 10.0089C7.97826 12.7967 6.41211 16.5777 6.41211 20.5202C6.41211 24.4627 7.97826 28.2437 10.766 31.0315C13.5538 33.8193 17.3348 35.3854 21.2774 35.3854C25.2199 35.3854 29.0009 33.8193 31.7887 31.0315Z" stroke="#878787" stroke-width="3.56757" stroke-linecap="round" stroke-linejoin="round"/>
</svg>
