<svg width="220" height="189" viewBox="0 0 220 189" fill="none" xmlns="http://www.w3.org/2000/svg">
<path d="M160 0C139 0 120.74 9.47 110 25.34C99.26 9.47 81 0 60 0C44.0927 0.0185261 28.8422 6.34589 17.5941 17.5941C6.34589 28.8422 0.0185261 44.0927 0 60C0 89.2 18.2 119.59 54.1 150.31C70.5505 164.328 88.3201 176.719 107.16 187.31C108.033 187.779 109.009 188.025 110 188.025C110.991 188.025 111.967 187.779 112.84 187.31C131.68 176.719 149.449 164.328 165.9 150.31C201.8 119.59 220 89.2 220 60C219.981 44.0927 213.654 28.8422 202.406 17.5941C191.158 6.34589 175.907 0.0185261 160 0ZM110 175.11C93.59 165.64 12 115.72 12 60C12.0132 47.2737 17.0746 35.0724 26.0735 26.0735C35.0724 17.0746 47.2737 12.0132 60 12C80.28 12 97.31 22.83 104.45 40.27C104.902 41.3705 105.671 42.3117 106.659 42.9741C107.647 43.6365 108.81 43.9902 110 43.9902C111.19 43.9902 112.353 43.6365 113.341 42.9741C114.329 42.3117 115.098 41.3705 115.55 40.27C122.69 22.83 139.72 12 160 12C172.726 12.0132 184.928 17.0746 193.927 26.0735C202.925 35.0724 207.987 47.2737 208 60C208 115.72 126.41 165.64 110 175.11Z" fill="black"/>
</svg>
